#usda 1.0
(
    defaultPrim = "BusinessCardTemplate"
    metersPerUnit = 1
    upAxis = "Y"
)

# 생성물이다. 손으로 고치지 말고 tools/card-template/build_template.py 를 고친 뒤
# `cd UMCApp && make card-template` 을 돌린다.

def Xform "BusinessCardTemplate" (
    kind = "component"
)
{
    def Mesh "CardBody" (
        prepend apiSchemas = ["MaterialBindingAPI"]
    )
    {
        uniform token subdivisionScheme = "none"
        float3[] extent = [(-0.045000, -0.025000, -0.000300), (0.045000, 0.025000, 0.000300)]
        point3f[] points = [(0.036707, -0.025000, 0.000300), (0.038325, -0.024841, 0.000300), (0.039881, -0.024369, 0.000300), (0.041314, -0.023602, 0.000300), (0.042571, -0.022571, 0.000300), (0.043602, -0.021314, 0.000300), (0.044369, -0.019881, 0.000300), (0.044841, -0.018325, 0.000300), (0.045000, -0.016707, 0.000300), (0.045000, 0.016707, 0.000300), (0.044841, 0.018325, 0.000300), (0.044369, 0.019881, 0.000300), (0.043602, 0.021314, 0.000300), (0.042571, 0.022571, 0.000300), (0.041314, 0.023602, 0.000300), (0.039881, 0.024369, 0.000300), (0.038325, 0.024841, 0.000300), (0.036707, 0.025000, 0.000300), (-0.036707, 0.025000, 0.000300), (-0.038325, 0.024841, 0.000300), (-0.039881, 0.024369, 0.000300), (-0.041314, 0.023602, 0.000300), (-0.042571, 0.022571, 0.000300), (-0.043602, 0.021314, 0.000300), (-0.044369, 0.019881, 0.000300), (-0.044841, 0.018325, 0.000300), (-0.045000, 0.016707, 0.000300), (-0.045000, -0.016707, 0.000300), (-0.044841, -0.018325, 0.000300), (-0.044369, -0.019881, 0.000300), (-0.043602, -0.021314, 0.000300), (-0.042571, -0.022571, 0.000300), (-0.041314, -0.023602, 0.000300), (-0.039881, -0.024369, 0.000300), (-0.038325, -0.024841, 0.000300), (-0.036707, -0.025000, 0.000300), (0.036707, -0.025000, -0.000300), (0.038325, -0.024841, -0.000300), (0.039881, -0.024369, -0.000300), (0.041314, -0.023602, -0.000300), (0.042571, -0.022571, -0.000300), (0.043602, -0.021314, -0.000300), (0.044369, -0.019881, -0.000300), (0.044841, -0.018325, -0.000300), (0.045000, -0.016707, -0.000300), (0.045000, 0.016707, -0.000300), (0.044841, 0.018325, -0.000300), (0.044369, 0.019881, -0.000300), (0.043602, 0.021314, -0.000300), (0.042571, 0.022571, -0.000300), (0.041314, 0.023602, -0.000300), (0.039881, 0.024369, -0.000300), (0.038325, 0.024841, -0.000300), (0.036707, 0.025000, -0.000300), (-0.036707, 0.025000, -0.000300), (-0.038325, 0.024841, -0.000300), (-0.039881, 0.024369, -0.000300), (-0.041314, 0.023602, -0.000300), (-0.042571, 0.022571, -0.000300), (-0.043602, 0.021314, -0.000300), (-0.044369, 0.019881, -0.000300), (-0.044841, 0.018325, -0.000300), (-0.045000, 0.016707, -0.000300), (-0.045000, -0.016707, -0.000300), (-0.044841, -0.018325, -0.000300), (-0.044369, -0.019881, -0.000300), (-0.043602, -0.021314, -0.000300), (-0.042571, -0.022571, -0.000300), (-0.041314, -0.023602, -0.000300), (-0.039881, -0.024369, -0.000300), (-0.038325, -0.024841, -0.000300), (-0.036707, -0.025000, -0.000300)]
        int[] faceVertexCounts = [36, 36, 4, 4, 4, 4, 4, 4, 4, 4, 4, 4, 4, 4, 4, 4, 4, 4, 4, 4, 4, 4, 4, 4, 4, 4, 4, 4, 4, 4, 4, 4, 4, 4, 4, 4, 4, 4]
        int[] faceVertexIndices = [0, 1, 2, 3, 4, 5, 6, 7, 8, 9, 10, 11, 12, 13, 14, 15, 16, 17, 18, 19, 20, 21, 22, 23, 24, 25, 26, 27, 28, 29, 30, 31, 32, 33, 34, 35, 71, 70, 69, 68, 67, 66, 65, 64, 63, 62, 61, 60, 59, 58, 57, 56, 55, 54, 53, 52, 51, 50, 49, 48, 47, 46, 45, 44, 43, 42, 41, 40, 39, 38, 37, 36, 0, 36, 37, 1, 1, 37, 38, 2, 2, 38, 39, 3, 3, 39, 40, 4, 4, 40, 41, 5, 5, 41, 42, 6, 6, 42, 43, 7, 7, 43, 44, 8, 8, 44, 45, 9, 9, 45, 46, 10, 10, 46, 47, 11, 11, 47, 48, 12, 12, 48, 49, 13, 13, 49, 50, 14, 14, 50, 51, 15, 15, 51, 52, 16, 16, 52, 53, 17, 17, 53, 54, 18, 18, 54, 55, 19, 19, 55, 56, 20, 20, 56, 57, 21, 21, 57, 58, 22, 22, 58, 59, 23, 23, 59, 60, 24, 24, 60, 61, 25, 25, 61, 62, 26, 26, 62, 63, 27, 27, 63, 64, 28, 28, 64, 65, 29, 29, 65, 66, 30, 30, 66, 67, 31, 31, 67, 68, 32, 32, 68, 69, 33, 33, 69, 70, 34, 34, 70, 71, 35, 35, 71, 36, 0]
        normal3f[] normals = [(0.000000, 0.000000, 1.000000), (0.000000, 0.000000, 1.000000), (0.000000, 0.000000, 1.000000), (0.000000, 0.000000, 1.000000), (0.000000, 0.000000, 1.000000), (0.000000, 0.000000, 1.000000), (0.000000, 0.000000, 1.000000), (0.000000, 0.000000, 1.000000), (0.000000, 0.000000, 1.000000), (0.000000, 0.000000, 1.000000), (0.000000, 0.000000, 1.000000), (0.000000, 0.000000, 1.000000), (0.000000, 0.000000, 1.000000), (0.000000, 0.000000, 1.000000), (0.000000, 0.000000, 1.000000), (0.000000, 0.000000, 1.000000), (0.000000, 0.000000, 1.000000), (0.000000, 0.000000, 1.000000), (0.000000, 0.000000, 1.000000), (0.000000, 0.000000, 1.000000), (0.000000, 0.000000, 1.000000), (0.000000, 0.000000, 1.000000), (0.000000, 0.000000, 1.000000), (0.000000, 0.000000, 1.000000), (0.000000, 0.000000, 1.000000), (0.000000, 0.000000, 1.000000), (0.000000, 0.000000, 1.000000), (0.000000, 0.000000, 1.000000), (0.000000, 0.000000, 1.000000), (0.000000, 0.000000, 1.000000), (0.000000, 0.000000, 1.000000), (0.000000, 0.000000, 1.000000), (0.000000, 0.000000, 1.000000), (0.000000, 0.000000, 1.000000), (0.000000, 0.000000, 1.000000), (0.000000, 0.000000, 1.000000), (0.000000, 0.000000, -1.000000), (0.000000, 0.000000, -1.000000), (0.000000, 0.000000, -1.000000), (0.000000, 0.000000, -1.000000), (0.000000, 0.000000, -1.000000), (0.000000, 0.000000, -1.000000), (0.000000, 0.000000, -1.000000), (0.000000, 0.000000, -1.000000), (0.000000, 0.000000, -1.000000), (0.000000, 0.000000, -1.000000), (0.000000, 0.000000, -1.000000), (0.000000, 0.000000, -1.000000), (0.000000, 0.000000, -1.000000), (0.000000, 0.000000, -1.000000), (0.000000, 0.000000, -1.000000), (0.000000, 0.000000, -1.000000), (0.000000, 0.000000, -1.000000), (0.000000, 0.000000, -1.000000), (0.000000, 0.000000, -1.000000), (0.000000, 0.000000, -1.000000), (0.000000, 0.000000, -1.000000), (0.000000, 0.000000, -1.000000), (0.000000, 0.000000, -1.000000), (0.000000, 0.000000, -1.000000), (0.000000, 0.000000, -1.000000), (0.000000, 0.000000, -1.000000), (0.000000, 0.000000, -1.000000), (0.000000, 0.000000, -1.000000), (0.000000, 0.000000, -1.000000), (0.000000, 0.000000, -1.000000), (0.000000, 0.000000, -1.000000), (0.000000, 0.000000, -1.000000), (0.000000, 0.000000, -1.000000), (0.000000, 0.000000, -1.000000), (0.000000, 0.000000, -1.000000), (0.000000, 0.000000, -1.000000), (0.098017, -0.995185, 0.000000), (0.098017, -0.995185, 0.000000), (0.098017, -0.995185, 0.000000), (0.098017, -0.995185, 0.000000), (0.290285, -0.956940, 0.000000), (0.290285, -0.956940, 0.000000), (0.290285, -0.956940, 0.000000), (0.290285, -0.956940, 0.000000), (0.471397, -0.881921, 0.000000), (0.471397, -0.881921, 0.000000), (0.471397, -0.881921, 0.000000), (0.471397, -0.881921, 0.000000), (0.634393, -0.773010, 0.000000), (0.634393, -0.773010, 0.000000), (0.634393, -0.773010, 0.000000), (0.634393, -0.773010, 0.000000), (0.773010, -0.634393, 0.000000), (0.773010, -0.634393, 0.000000), (0.773010, -0.634393, 0.000000), (0.773010, -0.634393, 0.000000), (0.881921, -0.471397, 0.000000), (0.881921, -0.471397, 0.000000), (0.881921, -0.471397, 0.000000), (0.881921, -0.471397, 0.000000), (0.956940, -0.290285, 0.000000), (0.956940, -0.290285, 0.000000), (0.956940, -0.290285, 0.000000), (0.956940, -0.290285, 0.000000), (0.995185, -0.098017, 0.000000), (0.995185, -0.098017, 0.000000), (0.995185, -0.098017, 0.000000), (0.995185, -0.098017, 0.000000), (1.000000, -0.000000, 0.000000), (1.000000, -0.000000, 0.000000), (1.000000, -0.000000, 0.000000), (1.000000, -0.000000, 0.000000), (0.995185, 0.098017, 0.000000), (0.995185, 0.098017, 0.000000), (0.995185, 0.098017, 0.000000), (0.995185, 0.098017, 0.000000), (0.956940, 0.290285, 0.000000), (0.956940, 0.290285, 0.000000), (0.956940, 0.290285, 0.000000), (0.956940, 0.290285, 0.000000), (0.881921, 0.471397, 0.000000), (0.881921, 0.471397, 0.000000), (0.881921, 0.471397, 0.000000), (0.881921, 0.471397, 0.000000), (0.773010, 0.634393, 0.000000), (0.773010, 0.634393, 0.000000), (0.773010, 0.634393, 0.000000), (0.773010, 0.634393, 0.000000), (0.634393, 0.773010, 0.000000), (0.634393, 0.773010, 0.000000), (0.634393, 0.773010, 0.000000), (0.634393, 0.773010, 0.000000), (0.471397, 0.881921, 0.000000), (0.471397, 0.881921, 0.000000), (0.471397, 0.881921, 0.000000), (0.471397, 0.881921, 0.000000), (0.290285, 0.956940, 0.000000), (0.290285, 0.956940, 0.000000), (0.290285, 0.956940, 0.000000), (0.290285, 0.956940, 0.000000), (0.098017, 0.995185, 0.000000), (0.098017, 0.995185, 0.000000), (0.098017, 0.995185, 0.000000), (0.098017, 0.995185, 0.000000), (0.000000, 1.000000, 0.000000), (0.000000, 1.000000, 0.000000), (0.000000, 1.000000, 0.000000), (0.000000, 1.000000, 0.000000), (-0.098017, 0.995185, 0.000000), (-0.098017, 0.995185, 0.000000), (-0.098017, 0.995185, 0.000000), (-0.098017, 0.995185, 0.000000), (-0.290285, 0.956940, 0.000000), (-0.290285, 0.956940, 0.000000), (-0.290285, 0.956940, 0.000000), (-0.290285, 0.956940, 0.000000), (-0.471397, 0.881921, 0.000000), (-0.471397, 0.881921, 0.000000), (-0.471397, 0.881921, 0.000000), (-0.471397, 0.881921, 0.000000), (-0.634393, 0.773010, 0.000000), (-0.634393, 0.773010, 0.000000), (-0.634393, 0.773010, 0.000000), (-0.634393, 0.773010, 0.000000), (-0.773010, 0.634393, 0.000000), (-0.773010, 0.634393, 0.000000), (-0.773010, 0.634393, 0.000000), (-0.773010, 0.634393, 0.000000), (-0.881921, 0.471397, 0.000000), (-0.881921, 0.471397, 0.000000), (-0.881921, 0.471397, 0.000000), (-0.881921, 0.471397, 0.000000), (-0.956940, 0.290285, 0.000000), (-0.956940, 0.290285, 0.000000), (-0.956940, 0.290285, 0.000000), (-0.956940, 0.290285, 0.000000), (-0.995185, 0.098017, 0.000000), (-0.995185, 0.098017, 0.000000), (-0.995185, 0.098017, 0.000000), (-0.995185, 0.098017, 0.000000), (-1.000000, -0.000000, 0.000000), (-1.000000, -0.000000, 0.000000), (-1.000000, -0.000000, 0.000000), (-1.000000, -0.000000, 0.000000), (-0.995185, -0.098017, 0.000000), (-0.995185, -0.098017, 0.000000), (-0.995185, -0.098017, 0.000000), (-0.995185, -0.098017, 0.000000), (-0.956940, -0.290285, 0.000000), (-0.956940, -0.290285, 0.000000), (-0.956940, -0.290285, 0.000000), (-0.956940, -0.290285, 0.000000), (-0.881921, -0.471397, 0.000000), (-0.881921, -0.471397, 0.000000), (-0.881921, -0.471397, 0.000000), (-0.881921, -0.471397, 0.000000), (-0.773010, -0.634393, 0.000000), (-0.773010, -0.634393, 0.000000), (-0.773010, -0.634393, 0.000000), (-0.773010, -0.634393, 0.000000), (-0.634393, -0.773010, 0.000000), (-0.634393, -0.773010, 0.000000), (-0.634393, -0.773010, 0.000000), (-0.634393, -0.773010, 0.000000), (-0.471397, -0.881921, 0.000000), (-0.471397, -0.881921, 0.000000), (-0.471397, -0.881921, 0.000000), (-0.471397, -0.881921, 0.000000), (-0.290285, -0.956940, 0.000000), (-0.290285, -0.956940, 0.000000), (-0.290285, -0.956940, 0.000000), (-0.290285, -0.956940, 0.000000), (-0.098017, -0.995185, 0.000000), (-0.098017, -0.995185, 0.000000), (-0.098017, -0.995185, 0.000000), (-0.098017, -0.995185, 0.000000), (0.000000, -1.000000, 0.000000), (0.000000, -1.000000, 0.000000), (0.000000, -1.000000, 0.000000), (0.000000, -1.000000, 0.000000)] (
            interpolation = "faceVarying"
        )
        texCoord2f[] primvars:st = [(0.907856, 0.000000), (0.925832, 0.003187), (0.943118, 0.012625), (0.959048, 0.027952), (0.973012, 0.048579), (0.984471, 0.073713), (0.992986, 0.102388), (0.998229, 0.133502), (1.000000, 0.165860), (1.000000, 0.834140), (0.998229, 0.866498), (0.992986, 0.897612), (0.984471, 0.926287), (0.973012, 0.951421), (0.959048, 0.972048), (0.943118, 0.987375), (0.925832, 0.996813), (0.907856, 1.000000), (0.092144, 1.000000), (0.074168, 0.996813), (0.056882, 0.987375), (0.040952, 0.972048), (0.026988, 0.951421), (0.015529, 0.926287), (0.007014, 0.897612), (0.001771, 0.866498), (0.000000, 0.834140), (0.000000, 0.165860), (0.001771, 0.133502), (0.007014, 0.102388), (0.015529, 0.073713), (0.026988, 0.048579), (0.040952, 0.027952), (0.056882, 0.012625), (0.074168, 0.003187), (0.092144, 0.000000), (0.907856, 0.000000), (0.925832, 0.003187), (0.943118, 0.012625), (0.959048, 0.027952), (0.973012, 0.048579), (0.984471, 0.073713), (0.992986, 0.102388), (0.998229, 0.133502), (1.000000, 0.165860), (1.000000, 0.834140), (0.998229, 0.866498), (0.992986, 0.897612), (0.984471, 0.926287), (0.973012, 0.951421), (0.959048, 0.972048), (0.943118, 0.987375), (0.925832, 0.996813), (0.907856, 1.000000), (0.092144, 1.000000), (0.074168, 0.996813), (0.056882, 0.987375), (0.040952, 0.972048), (0.026988, 0.951421), (0.015529, 0.926287), (0.007014, 0.897612), (0.001771, 0.866498), (0.000000, 0.834140), (0.000000, 0.165860), (0.001771, 0.133502), (0.007014, 0.102388), (0.015529, 0.073713), (0.026988, 0.048579), (0.040952, 0.027952), (0.056882, 0.012625), (0.074168, 0.003187), (0.092144, 0.000000)] (
            interpolation = "vertex"
        )
        rel material:binding = </BusinessCardTemplate/Materials/CardSurface>
    }

    def Xform "Face_Front"
    {
        double3 xformOp:translate = (0.000000, 0.000000, 0.000300)
        uniform token[] xformOpOrder = ["xformOp:translate"]

        def Mesh "Portrait" (
            prepend apiSchemas = ["MaterialBindingAPI"]
        )
        {
            uniform token subdivisionScheme = "none"
            double3 xformOp:translate = (-0.032561, -0.002825, 0.000050)
            uniform token[] xformOpOrder = ["xformOp:translate"]
            float3[] extent = [(-0.008537, -0.008537, 0.000000), (0.008537, 0.008537, 0.000000)]
            point3f[] points = [(0.008537, 0.000000, 0.000000), (0.008463, 0.001114, 0.000000), (0.008246, 0.002209, 0.000000), (0.007887, 0.003267, 0.000000), (0.007393, 0.004268, 0.000000), (0.006772, 0.005197, 0.000000), (0.006036, 0.006036, 0.000000), (0.005197, 0.006772, 0.000000), (0.004268, 0.007393, 0.000000), (0.003267, 0.007887, 0.000000), (0.002209, 0.008246, 0.000000), (0.001114, 0.008463, 0.000000), (0.000000, 0.008537, 0.000000), (-0.001114, 0.008463, 0.000000), (-0.002209, 0.008246, 0.000000), (-0.003267, 0.007887, 0.000000), (-0.004268, 0.007393, 0.000000), (-0.005197, 0.006772, 0.000000), (-0.006036, 0.006036, 0.000000), (-0.006772, 0.005197, 0.000000), (-0.007393, 0.004268, 0.000000), (-0.007887, 0.003267, 0.000000), (-0.008246, 0.002209, 0.000000), (-0.008463, 0.001114, 0.000000), (-0.008537, 0.000000, 0.000000), (-0.008463, -0.001114, 0.000000), (-0.008246, -0.002209, 0.000000), (-0.007887, -0.003267, 0.000000), (-0.007393, -0.004268, 0.000000), (-0.006772, -0.005197, 0.000000), (-0.006036, -0.006036, 0.000000), (-0.005197, -0.006772, 0.000000), (-0.004268, -0.007393, 0.000000), (-0.003267, -0.007887, 0.000000), (-0.002209, -0.008246, 0.000000), (-0.001114, -0.008463, 0.000000), (-0.000000, -0.008537, 0.000000), (0.001114, -0.008463, 0.000000), (0.002209, -0.008246, 0.000000), (0.003267, -0.007887, 0.000000), (0.004268, -0.007393, 0.000000), (0.005197, -0.006772, 0.000000), (0.006036, -0.006036, 0.000000), (0.006772, -0.005197, 0.000000), (0.007393, -0.004268, 0.000000), (0.007887, -0.003267, 0.000000), (0.008246, -0.002209, 0.000000), (0.008463, -0.001114, 0.000000)]
            int[] faceVertexCounts = [48]
            int[] faceVertexIndices = [0, 1, 2, 3, 4, 5, 6, 7, 8, 9, 10, 11, 12, 13, 14, 15, 16, 17, 18, 19, 20, 21, 22, 23, 24, 25, 26, 27, 28, 29, 30, 31, 32, 33, 34, 35, 36, 37, 38, 39, 40, 41, 42, 43, 44, 45, 46, 47]
            normal3f[] normals = [(0.000000, 0.000000, 1.000000), (0.000000, 0.000000, 1.000000), (0.000000, 0.000000, 1.000000), (0.000000, 0.000000, 1.000000), (0.000000, 0.000000, 1.000000), (0.000000, 0.000000, 1.000000), (0.000000, 0.000000, 1.000000), (0.000000, 0.000000, 1.000000), (0.000000, 0.000000, 1.000000), (0.000000, 0.000000, 1.000000), (0.000000, 0.000000, 1.000000), (0.000000, 0.000000, 1.000000), (0.000000, 0.000000, 1.000000), (0.000000, 0.000000, 1.000000), (0.000000, 0.000000, 1.000000), (0.000000, 0.000000, 1.000000), (0.000000, 0.000000, 1.000000), (0.000000, 0.000000, 1.000000), (0.000000, 0.000000, 1.000000), (0.000000, 0.000000, 1.000000), (0.000000, 0.000000, 1.000000), (0.000000, 0.000000, 1.000000), (0.000000, 0.000000, 1.000000), (0.000000, 0.000000, 1.000000), (0.000000, 0.000000, 1.000000), (0.000000, 0.000000, 1.000000), (0.000000, 0.000000, 1.000000), (0.000000, 0.000000, 1.000000), (0.000000, 0.000000, 1.000000), (0.000000, 0.000000, 1.000000), (0.000000, 0.000000, 1.000000), (0.000000, 0.000000, 1.000000), (0.000000, 0.000000, 1.000000), (0.000000, 0.000000, 1.000000), (0.000000, 0.000000, 1.000000), (0.000000, 0.000000, 1.000000), (0.000000, 0.000000, 1.000000), (0.000000, 0.000000, 1.000000), (0.000000, 0.000000, 1.000000), (0.000000, 0.000000, 1.000000), (0.000000, 0.000000, 1.000000), (0.000000, 0.000000, 1.000000), (0.000000, 0.000000, 1.000000), (0.000000, 0.000000, 1.000000), (0.000000, 0.000000, 1.000000), (0.000000, 0.000000, 1.000000), (0.000000, 0.000000, 1.000000), (0.000000, 0.000000, 1.000000)] (
                interpolation = "faceVarying"
            )
            texCoord2f[] primvars:st = [(1.000000, 0.500000), (0.995722, 0.565263), (0.982963, 0.629410), (0.961940, 0.691342), (0.933013, 0.750000), (0.896677, 0.804381), (0.853553, 0.853553), (0.804381, 0.896677), (0.750000, 0.933013), (0.691342, 0.961940), (0.629410, 0.982963), (0.565263, 0.995722), (0.500000, 1.000000), (0.434737, 0.995722), (0.370590, 0.982963), (0.308658, 0.961940), (0.250000, 0.933013), (0.195619, 0.896677), (0.146447, 0.853553), (0.103323, 0.804381), (0.066987, 0.750000), (0.038060, 0.691342), (0.017037, 0.629410), (0.004278, 0.565263), (0.000000, 0.500000), (0.004278, 0.434737), (0.017037, 0.370590), (0.038060, 0.308658), (0.066987, 0.250000), (0.103323, 0.195619), (0.146447, 0.146447), (0.195619, 0.103323), (0.250000, 0.066987), (0.308658, 0.038060), (0.370590, 0.017037), (0.434737, 0.004278), (0.500000, 0.000000), (0.565263, 0.004278), (0.629410, 0.017037), (0.691342, 0.038060), (0.750000, 0.066987), (0.804381, 0.103323), (0.853553, 0.146447), (0.896677, 0.195619), (0.933013, 0.250000), (0.961940, 0.308658), (0.982963, 0.370590), (0.995722, 0.434737)] (
                interpolation = "vertex"
            )
            rel material:binding = </BusinessCardTemplate/Materials/Portrait>
        }

        def Xform "Anchor_Name"
        {
            double3 xformOp:translate = (-0.020123, 0.000861, 0.000200)
            uniform token[] xformOpOrder = ["xformOp:translate"]
        }

        def Xform "Anchor_University"
        {
            double3 xformOp:translate = (0.015828, 0.000861, 0.000200)
            uniform token[] xformOpOrder = ["xformOp:translate"]
        }

        def Xform "Anchor_PartChip"
        {
            double3 xformOp:translate = (-0.020123, -0.008173, 0.000100)
            uniform token[] xformOpOrder = ["xformOp:translate"]
        }

        def Xform "Anchor_GenerationChip"
        {
            double3 xformOp:translate = (-0.002501, -0.008173, 0.000100)
            uniform token[] xformOpOrder = ["xformOp:translate"]
        }
    }

    def Xform "Face_Back"
    {
        double3 xformOp:translate = (0.000000, 0.000000, -0.000300)
        double xformOp:rotateY = 180
        uniform token[] xformOpOrder = ["xformOp:translate", "xformOp:rotateY"]

        def Mesh "QRSurface" (
            prepend apiSchemas = ["MaterialBindingAPI"]
        )
        {
            uniform token subdivisionScheme = "none"
            double3 xformOp:translate = (-0.032561, -0.002825, 0.000050)
            uniform token[] xformOpOrder = ["xformOp:translate"]
            float3[] extent = [(-0.008537, -0.008537, 0.000000), (0.008537, 0.008537, 0.000000)]
            point3f[] points = [(0.007030, -0.008537, 0.000000), (0.007324, -0.008508, 0.000000), (0.007606, -0.008422, 0.000000), (0.007867, -0.008283, 0.000000), (0.008095, -0.008095, 0.000000), (0.008283, -0.007867, 0.000000), (0.008422, -0.007606, 0.000000), (0.008508, -0.007324, 0.000000), (0.008537, -0.007030, 0.000000), (0.008537, 0.007030, 0.000000), (0.008508, 0.007324, 0.000000), (0.008422, 0.007606, 0.000000), (0.008283, 0.007867, 0.000000), (0.008095, 0.008095, 0.000000), (0.007867, 0.008283, 0.000000), (0.007606, 0.008422, 0.000000), (0.007324, 0.008508, 0.000000), (0.007030, 0.008537, 0.000000), (-0.007030, 0.008537, 0.000000), (-0.007324, 0.008508, 0.000000), (-0.007606, 0.008422, 0.000000), (-0.007867, 0.008283, 0.000000), (-0.008095, 0.008095, 0.000000), (-0.008283, 0.007867, 0.000000), (-0.008422, 0.007606, 0.000000), (-0.008508, 0.007324, 0.000000), (-0.008537, 0.007030, 0.000000), (-0.008537, -0.007030, 0.000000), (-0.008508, -0.007324, 0.000000), (-0.008422, -0.007606, 0.000000), (-0.008283, -0.007867, 0.000000), (-0.008095, -0.008095, 0.000000), (-0.007867, -0.008283, 0.000000), (-0.007606, -0.008422, 0.000000), (-0.007324, -0.008508, 0.000000), (-0.007030, -0.008537, 0.000000)]
            int[] faceVertexCounts = [36]
            int[] faceVertexIndices = [0, 1, 2, 3, 4, 5, 6, 7, 8, 9, 10, 11, 12, 13, 14, 15, 16, 17, 18, 19, 20, 21, 22, 23, 24, 25, 26, 27, 28, 29, 30, 31, 32, 33, 34, 35]
            normal3f[] normals = [(0.000000, 0.000000, 1.000000), (0.000000, 0.000000, 1.000000), (0.000000, 0.000000, 1.000000), (0.000000, 0.000000, 1.000000), (0.000000, 0.000000, 1.000000), (0.000000, 0.000000, 1.000000), (0.000000, 0.000000, 1.000000), (0.000000, 0.000000, 1.000000), (0.000000, 0.000000, 1.000000), (0.000000, 0.000000, 1.000000), (0.000000, 0.000000, 1.000000), (0.000000, 0.000000, 1.000000), (0.000000, 0.000000, 1.000000), (0.000000, 0.000000, 1.000000), (0.000000, 0.000000, 1.000000), (0.000000, 0.000000, 1.000000), (0.000000, 0.000000, 1.000000), (0.000000, 0.000000, 1.000000), (0.000000, 0.000000, 1.000000), (0.000000, 0.000000, 1.000000), (0.000000, 0.000000, 1.000000), (0.000000, 0.000000, 1.000000), (0.000000, 0.000000, 1.000000), (0.000000, 0.000000, 1.000000), (0.000000, 0.000000, 1.000000), (0.000000, 0.000000, 1.000000), (0.000000, 0.000000, 1.000000), (0.000000, 0.000000, 1.000000), (0.000000, 0.000000, 1.000000), (0.000000, 0.000000, 1.000000), (0.000000, 0.000000, 1.000000), (0.000000, 0.000000, 1.000000), (0.000000, 0.000000, 1.000000), (0.000000, 0.000000, 1.000000), (0.000000, 0.000000, 1.000000), (0.000000, 0.000000, 1.000000)] (
                interpolation = "faceVarying"
            )
            texCoord2f[] primvars:st = [(0.911732, 0.000000), (0.928952, 0.001696), (0.945511, 0.006719), (0.960771, 0.014876), (0.974147, 0.025853), (0.985124, 0.039229), (0.993281, 0.054489), (0.998304, 0.071048), (1.000000, 0.088268), (1.000000, 0.911732), (0.998304, 0.928952), (0.993281, 0.945511), (0.985124, 0.960771), (0.974147, 0.974147), (0.960771, 0.985124), (0.945511, 0.993281), (0.928952, 0.998304), (0.911732, 1.000000), (0.088268, 1.000000), (0.071048, 0.998304), (0.054489, 0.993281), (0.039229, 0.985124), (0.025853, 0.974147), (0.014876, 0.960771), (0.006719, 0.945511), (0.001696, 0.928952), (0.000000, 0.911732), (0.000000, 0.088268), (0.001696, 0.071048), (0.006719, 0.054489), (0.014876, 0.039229), (0.025853, 0.025853), (0.039229, 0.014876), (0.054489, 0.006719), (0.071048, 0.001696), (0.088268, 0.000000)] (
                interpolation = "vertex"
            )
            rel material:binding = </BusinessCardTemplate/Materials/QRSurface>
        }

        def Xform "Anchor_LinkTop"
        {
            double3 xformOp:translate = (-0.020123, 0.002351, 0.000200)
            uniform token[] xformOpOrder = ["xformOp:translate"]
        }

        def Xform "Anchor_LinkMiddle"
        {
            double3 xformOp:translate = (-0.020123, -0.003975, 0.000200)
            uniform token[] xformOpOrder = ["xformOp:translate"]
        }

        def Xform "Anchor_LinkBottom"
        {
            double3 xformOp:translate = (-0.020123, -0.010301, 0.000200)
            uniform token[] xformOpOrder = ["xformOp:translate"]
        }
    }

    def Scope "Materials"
    {
    def Material "CardSurface"
    {
        token outputs:surface.connect = </BusinessCardTemplate/Materials/CardSurface/Surface.outputs:surface>

        def Shader "Surface"
        {
            uniform token info:id = "UsdPreviewSurface"
            color3f inputs:diffuseColor.connect = </BusinessCardTemplate/Materials/CardSurface/Texture.outputs:rgb>
            float inputs:metallic = 0
            float inputs:roughness = 0.65
            token outputs:surface
        }

        def Shader "Texture"
        {
            uniform token info:id = "UsdUVTexture"
            asset inputs:file = @cardSurface.png@
            float2 inputs:st.connect = </BusinessCardTemplate/Materials/CardSurface/UVReader.outputs:result>
            token inputs:wrapS = "clamp"
            token inputs:wrapT = "clamp"
            float3 outputs:rgb
        }

        def Shader "UVReader"
        {
            uniform token info:id = "UsdPrimvarReader_float2"
            string inputs:varname = "st"
            float2 outputs:result
        }
    }

    def Material "PortraitSurface"
    {
        token outputs:surface.connect = </BusinessCardTemplate/Materials/PortraitSurface/Surface.outputs:surface>

        def Shader "Surface"
        {
            uniform token info:id = "UsdPreviewSurface"
            color3f inputs:diffuseColor = (0.905882, 0.909804, 0.917647)
            float inputs:metallic = 0
            float inputs:roughness = 0.9
            token outputs:surface
        }
    }

    def Material "QRSurface"
    {
        token outputs:surface.connect = </BusinessCardTemplate/Materials/QRSurface/Surface.outputs:surface>

        def Shader "Surface"
        {
            uniform token info:id = "UsdPreviewSurface"
            color3f inputs:diffuseColor = (1.000000, 1.000000, 1.000000)
            float inputs:metallic = 0
            float inputs:roughness = 0.9
            token outputs:surface
        }
    }
    }
}
